<svg width="30" height="30" viewBox="0 0 30 30" fill="none" xmlns="http://www.w3.org/2000/svg">
<path d="M24.0697 0H20.5813C20.1961 0 19.8837 0.34004 19.8837 0.759494V0.848977L24.7674 5.10214V0.759494C24.7674 0.34004 24.4551 0 24.0697 0Z" fill="white"/>
<path fill-rule="evenodd" clip-rule="evenodd" d="M27.2092 12.0919L28.2997 13.0416C28.7511 13.4345 29.4096 13.3549 29.7707 12.8635C30.1317 12.3723 30.0585 11.6553 29.6072 11.2622L18.2687 1.38778C16.3578 -0.276515 13.6423 -0.276515 11.7313 1.38778L0.392802 11.2622C-0.0585229 11.6553 -0.131695 12.3723 0.229365 12.8635C0.590411 13.3549 1.24897 13.4345 1.7003 13.0416L2.79073 12.0919V27.7215H1.04655C0.468569 27.7215 3.97891e-05 28.2316 3.97891e-05 28.8608C3.97891e-05 29.4899 0.468569 30 1.04655 30H28.9534C29.5314 30 29.9999 29.4899 29.9999 28.8608C29.9999 28.2316 29.5314 27.7215 28.9534 27.7215H27.2092V12.0919ZM11.1628 9.87342C11.1628 7.56641 12.8807 5.6962 15 5.6962C17.1192 5.6962 18.8372 7.56641 18.8372 9.87342C18.8372 12.1805 17.1192 14.0506 15 14.0506C12.8807 14.0506 11.1628 12.1805 11.1628 9.87342ZM15.0689 15.5696C15.9967 15.5696 16.7959 15.5695 17.4361 15.6632C18.1221 15.7636 18.7797 15.9901 19.313 16.5706C19.8464 17.1513 20.0543 17.8671 20.1466 18.614C20.2272 19.2671 20.2322 20.0728 20.2325 21.003C20.2325 21.0652 20.2325 21.1277 20.2325 21.1908V27.7215H18.1395V21.2658C18.1395 20.1595 18.1373 19.4444 18.0722 18.9175C18.0113 18.4233 17.9128 18.2686 17.8331 18.1818C17.7534 18.0951 17.6111 17.9878 17.1572 17.9213C16.6731 17.8505 16.0162 17.8481 15 17.8481C13.9837 17.8481 13.3268 17.8505 12.8429 17.9213C12.389 17.9878 12.2467 18.0951 12.167 18.1818C12.0873 18.2686 11.9888 18.4233 11.9278 18.9175C11.8627 19.4444 11.8605 20.1595 11.8605 21.2658V27.7215H9.76746V21.1908C9.76741 20.181 9.76737 19.3107 9.85342 18.614C9.94565 17.8671 10.1536 17.1513 10.687 16.5706C11.2204 15.9901 11.878 15.7636 12.564 15.6632C13.204 15.5695 14.0034 15.5696 14.9312 15.5696H15.0689Z" fill="white"/>
</svg>
